<?xml version="1.0"?><svg version="1.2" baseProfile="tiny-ps" viewBox="0 0 300 300" xmlns="http://www.w3.org/2000/svg" xmlns:xlink="http://www.w3.org/1999/xlink"><title>raining-graces-logo-svgtinyps</title><g><g fill="#fafcfd" transform="matrix(.1 0 0 -.1 0 300)"><path d="m1373 2879-92-9-113-29-113-29-95-42-95-42-65-9-65-9-73-36-73-36-55-54-54-54-24-48c-13-27-28-66-32-87l-7-38-55-81c-104-152-183-348-218-537l-17-94v-310l22-102c63-300 205-555 418-753l78-72 102-68 102-68 93-40c118-52 246-89 373-108l100-16 140 5 140 5 82 16c172 34 386 124 522 219l64 45 27-20c15-10 43-23 63-28l36-8 45 10 45 9 35 39 35 39 10 38c14 50 14 63-5 138l-16 63 45 74c95 158 157 313 193 483l19 90-1 175v175l-22 102c-32 150-95 313-160 417l-24 39 16 34c9 18 16 44 16 57v24l-16 13-16 13-29-16-28-17-68 70c-247 252-491 392-785 448l-103 19-105 5-105 5-92-9z"/></g><g fill="#c1d3de" transform="matrix(.1 0 0 -.1 0 300)"><path d="m1373 2879-92-9-113-29-113-29-95-42-95-42-65-9-65-9-73-36-73-36-55-54-54-54-24-48c-13-27-28-66-32-87l-7-38-55-81c-104-152-183-348-218-537l-17-94v-310l22-102c63-300 205-555 418-753l78-72 102-68 102-68 93-40c118-52 246-89 373-108l100-16 140 5 140 5 82 16c172 34 386 124 522 219l64 45 27-20c15-10 43-23 63-28l36-8 45 10 45 9 35 39 35 39 10 38c14 50 14 63-5 138l-16 63 45 74c95 158 157 313 193 483l19 90-1 175v175l-22 102c-32 150-95 313-160 417l-24 39 16 34c9 18 16 44 16 57v24l-16 13-16 13-29-16-28-17-68 70c-247 252-491 392-785 448l-103 19-105 5-105 5-92-9zm316-44 106-16 107-30 107-31 93-47c51-26 127-69 168-96l75-50 90-88 90-89-15-5c-26-10-98-91-121-135-13-24-43-91-68-149s-53-116-62-130l-17-24-8 7-7 8 26 92c15 51 34 128 42 172l16 78-6 19-6 18-21 7-20 6-29-21-28-21-6 10c-3 6-17 10-30 10h-24l-25-42c-13-24-36-73-49-109-32-84-82-185-102-205l-15-15v16c0 8 14 62 30 118 17 56 34 128 37 161l6 58-18-3-19-4-61-135c-62-136-112-226-121-217-3 3 11 67 30 142l36 137v38c0 21-3 45-6 54l-6 16h-57l-12-21-11-21-11 11c-6 6-21 11-32 11h-22l-16-17c-8-10-37-67-63-128-26-60-63-135-82-165l-35-55-5 13c-2 7 14 70 36 140s43 139 46 155l6 27-15 6-16 6-17-15c-19-18-29-36-101-187-27-58-58-116-70-130l-20-25-7 8-8 8 18 67c10 37 31 97 47 134 34 78 36 102 10 144l-19 31-31 13-32 13-40-18-40-18-31-36c-17-19-42-60-56-90l-25-56-5-87-4-88 16-25 16-25h19c33 0 51 11 76 49l25 36v-84l21-15 21-14 17 5c28 10 52 36 81 86l28 49-5-46-6-46 13-15 12-15h45l21 23c12 12 35 47 53 77 17 30 27 46 23 35s-9-40-12-65l-4-45 21-19 21-19 16 14c15 12 86 154 115 228 20 49 17 13-7-83l-24-99 6-24 6-24 18-9 19-10 16 6c9 4 32 30 51 58l34 51v-74l16-15c8-9 21-16 28-16 17 0 49 36 81 90l26 45-7-37-6-36 7-30 6-30 15-6 15-6 24 26 24 26 48 110 48 111 3-16c2-9-4-37-13-63-20-61-29-126-21-158l6-26h59l24 33c14 17 37 59 51 92l25 60 1-26v-26l21-27 20-26h66l25 19 25 20-13-48c-14-56-63-182-75-196-5-5-9-15-9-22v-13h15c8 0 30-14 49-31l35-31 12 8c15 9 53 97 67 155 6 25 16 88 22 140 11 101 33 196 48 211l9 9 41-79c54-103 97-222 124-341l22-96 1-185v-185l-18-80c-42-182-112-355-191-471l-25-37-19 44c-42 99-82 207-95 254l-13 50-18-70c-10-38-41-119-68-180-28-60-61-141-75-179l-25-69 5-56c2-31 8-66 12-78l7-22-78-51c-153-100-320-167-503-201l-105-19h-274l-83 16c-344 64-598 212-820 474-170 201-271 449-301 736l-12 115 13 127 12 127 20 79c37 144 101 289 181 412l41 63 28-30 27-29h34l-5 18c-3 9-11 31-18 48l-13 32 19 48 18 49 51 50 51 50 68 33c37 18 84 36 104 39l36 6-5-14c-3-8-13-36-21-64-9-27-43-134-77-236l-60-185v-64l24-15 25-16 19 10 19 10 30 93 29 93 32 3 32 3v-28c0-28-28-109-63-183l-17-35-84-1-83-1-68-32-69-32-52-44c-62-53-110-117-152-200l-31-60-15-68-16-68v-114l14-53 14-53 28-37c30-40 29-39 63-64l23-16-22-30-23-31 6-40 5-40 22-31c44-61 140-110 218-110 45 0 101 25 140 63l34 32 33 66 33 65 16 77c9 42 16 93 16 114v37l86 128c47 70 90 128 96 128h9l-7-12c-4-7-17-29-29-48s-32-61-43-93l-22-58v-130l25-24 24-25h59l30 25c16 13 44 50 63 80l34 57 5-28 5-27 27-20 26-20 26 7 26 6 29 58 29 57-5-66-6-67 27-17 27-18 27 20c23 17 55 58 109 139l13 19-6-50-6-50 14-40 13-40 26-9 26-9 29 7 28 7 39 42c21 23 56 70 77 105l38 64 4-71 4-70 20-28c12-15 33-34 48-41l28-14 36 7 37 7 40 41c48 51 114 145 150 217l27 53 33-84c17-46 47-120 65-164l34-80 4-75 4-74-17-32-18-33-35-17-35-16-54 4-54 5-27 20-27 20-14 44c-26 83-33 88-65 46l-21-28V938l47-43 47-43 65-17 65-18 36 6c20 3 56 15 79 27l43 20 32 45c36 51 71 140 71 182 0 45-39 170-96 303l-54 128v60l14 11c8 7 27 16 43 20l28 8 22-8 22-8 15-50c8-27 19-59 26-70l11-21h38l7 36 7 36-13 41c-6 23-22 59-36 79l-24 38-40 20-39 20h-66l-31-19-31-19-20-33c-12-19-28-59-37-89l-16-55-80-100c-44-55-97-115-117-133l-36-32h-65l-5 23-6 22 9 38c9 43 11 46 41 61 12 6 35 27 51 47l29 36 5 35 6 36-21 21-21 21h-56l-46-47c-25-27-86-102-135-168s-97-126-106-133l-15-13-6 10c-3 5-2 39 3 76l10 66 30 62c38 79 50 93 95 115l37 18-21 27-21 27h-50l-43-29c-49-34-80-72-126-156-66-120-131-207-145-193-8 8 42 141 81 220l33 66-14 12-15 12v49l-26 24-27 25h-72l-40-23-40-22-50-100c-27-55-68-138-90-184l-40-84-25-19-26-19-17 7-17 6v44l46 90c80 152 85 165 82 182l-3 17-38 19-38 18 5 27 6 26-8 11c-4 6-14 13-22 16l-15 5-25-13c-14-7-32-24-40-39l-14-26 12-31 11-31-6-11c-4-6-31-49-62-95l-55-83-17 61c-10 34-26 76-36 94l-19 32-25 3-24 3-50-53-50-53-3 23c-4 27-8 27-50 2l-32-20-20-32c-23-37-26-68-8-86l12-12h35l36 1 25 14c37 21 40 19 27-21l-13-35-33-35-34-34-37-11-38-12-34 7-34 6-26 28-26 27-16 48-16 48v95l19 71 18 71 38 69 38 68 66 65 66 65 52 28c28 15 71 31 95 36l44 8v-61l-1-61 24-41 24-42 24-11c13-6 41-11 61-11h37l34 18 35 17 32 47 32 47 21 67c12 37 21 82 21 101v33h-26l-21-64-21-64-43-66c-59-89-78-95-99-30l-12 35 7 35 6 35 35-22 35-22 12 12 12 12-38 35-38 36 25 79 26 80v75l-20 39-21 40 23 15c13 8 43 33 67 55l44 40 23 50 24 50v77l-16 35c-22 46-68 90-113 109l-36 15 25 14c14 7 67 27 117 44l93 31 92 15c51 8 104 16 118 18 14 3 63 5 109 6l83 1 107-15zm-705-246 26-20v-20c0-11-10-39-21-61l-21-42-60-59c-32-33-61-57-65-54-3 3 8 39 24 79 17 40 36 96 43 123 18 74 18 75 33 75 8 0 26-9 41-21zm1601-299 7-11-38-82c-48-103-80-156-100-164l-16-6-8 13-8 13 5 36c3 20 20 64 36 99l31 64 29 24c30 26 52 30 62 14zm-1225-41c0-6-8-23-19-37-10-15-42-76-70-136l-51-110-11 11-10 10 16 64c21 79 48 135 88 177 31 32 57 42 57 21zm46-680 6-11-21-26c-11-15-41-65-65-112s-53-96-64-110l-21-25-6 17-7 17 22 65 21 65 39 59c21 33 44 62 52 65 22 9 36 8 44-4zm554-95c-31-49-34-37-8 27l23 54 3-23 3-22-21-36zM720 1302v-78l-16-55c-27-92-91-187-144-214l-29-15h-76l-32 20-32 19-7 26-6 25 6 25 6 25h55l38-42 38-43-7 35-6 35-24 32-24 32 36 10c20 6 54 22 75 37l39 27 30 46c17 25 36 65 42 88l10 43h28v-78zm861 1132c-23-30-26-46-11-75l11-19h58l11 19c5 11 10 31 10 45v25l-16 15c-22 23-40 20-63-10zm422-8-16-35 17-25 16-26h37l16 18 17 19v59l-12 12c-7 7-22 12-35 12h-23l-17-34zm92-605c-69-18-104-49-105-93v-26l26-31 26-31 75-36c41-20 76-34 77-33 2 2 6 20 10 40l6 36-62 17c-71 20-88 31-88 57v18l33 18 32 17h90c50 1 105-1 124-4l34-5 5 13 4 12-39 17-38 16-90 3-90 3-30-8zm525-252c-7-30-37-110-66-179-28-69-55-144-59-168l-7-42 21-43 21-42 28-20 27-20h103l27 25c15 14 34 39 41 57l14 32v76l-30 80c-16 44-46 129-68 189l-39 109-13-54zm-444-202c-9-31-33-91-53-134l-36-78-4-50-5-50 29-33 28-33 35-5 35-6 27 11 28 11 20 32 20 33v64l-26 68c-14 37-38 104-54 147l-28 80-16-57zm-878-328-18-10v-45l25-22 26-23-7-10-6-11-19 5-19 5v-29l33 3 32 3 3 27 3 27-25 17-26 16v28h52l-12 15c-15 17-19 18-42 4zm387-13-25-25v-25c0-14 5-36 11-50l11-24 18-5c9-2 25 0 34 5l16 9-5 9-5 8-20-5-20-5-8 23-9 23 7 26 7 25h21c11 0 24 3 27 7l7 6-21 12-21 11-25-25zm172 13-17-10v-47l27-20 26-19-8-12-7-13-19 5-19 5-5-8-5-7-25 5-25 4v38h40v20h-40v40h40v20h-60V899l48 1h66l19-1 8 13c14 22 10 38-16 62-14 13-25 28-25 34v11l28 3 27 3-20 12-21 11-17-9zM840 969v-70l38 3 37 3 1 55 1 55-10 13-9 12h-58v-71zm57 34 4-11-16-5-15-6v41l12-4c6-2 13-9 15-15zm3-63v-20h-30v40h30v-20zm40 30v-70h20v140h-20v-70zm40 0v-70h20v60h9c5 0 12-13 16-30l7-30h27l-10 29-10 30 11 20 11 21-11 20-11 20h-59v-70zm50 30v-20h-30v40h30v-20zm30 30c0-5 5-10 10-10h10V900h20v120h15c8 0 15 5 15 10v10h-70v-10zm80-60v-70h20v60h40v-62l13 5 12 4v126l-12 5-13 4v-62h-40v60h-20v-70zm227 63c-4-3-7-35-7-70v-63h70v20h-40v38l23 7 22 8-22 4-23 4v39h40v20h-28c-16 0-32-3-35-7zm77-6c-3-8-4-38-2-67l3-53 13-5 12-4 1 34v33l16-32c16-32 33-44 33-22 0 6-5 19-11 30l-10 20 11 14 12 14-4 23-3 23-33 3-32 3-6-14zm54-24c-2-9-9-18-15-21l-13-4v42h31l-3-17zm33 10c0-16 6-46 13-68l12-40h27l13 50c16 60 17 85 5 85h-9l-7-40c-4-22-10-42-15-45l-8-5-6 45-7 45h-19l1-27zm96 20c-4-3-7-35-7-70v-63h30v140h-8c-5 0-12-3-15-7zM840 850v-10h1080v20H840v-10zm301-64c-7-8-11-20-10-28 1-7-1-26-6-42l-8-29 17-12 16-12 23 4 23 5 1 34 1 34h-9c-5 0-9-5-9-12 0-6-3-9-6-6-3 4 0 16 6 28l11 21-12 15c-15 18-23 18-38 0zm29-15c0-6-4-13-10-16l-10-6v15c0 9 5 16 10 16 6 0 10-4 10-9zm-6-66 5-15h-29v15c0 8 4 15 9 15s11-7 15-15zm83 88c-4-3-7-33-7-65v-58h20v50h9c5 0 16 3 25 6l16 6v-20c0-11 7-28 16-37l16-16 19 17c11 9 19 23 19 30v13l15-5c8-4 15-10 15-15s-7-9-15-9-15-4-15-9c0-11 21-19 38-14l12 5v41l-17 13-18 13 18 1h17v20h-39l-9-16-9-16-6 16-6 16h-39l-5-12-5-13-1 22-1 22-19 11c-23 12-35 13-44 3zm41-36 3-17h-31v42l13-4c6-3 13-12 15-21zm62-42v-25h-20v50h20v-25zm97 59c-9-9-9-67-1-88 3-9 11-16 18-16h11v45l-1 45-10 10-10 10-7-6zm233-4v-10h-50v-90h19l3 32 3 31 13 5 12 4v-72h26l-2 48c-1 26-3 50-3 55-1 11-21 8-21-3zm-190-75v-66l10 6c6 3 10 13 10 21v15l9-5 9-6 12 14 11 15-3 33-3 33-27 3-28 3v-66zm40 20v-25h-20v50h20v-25zm35 35-6-10 23-1h23l-22-11-23-11v-47h60v29c0 16-3 36-6 45l-6 16h-18c-11 0-22-4-25-10zm35-44c0-3-4-8-10-11l-10-6v10c0 6 5 11 10 11 6 0 10-2 10-4zm120 10v-44l13-5c6-2 20-2 30 1l17 4v88h-20v-70h-20v70h-20v-44zm80-1v-45h20v70h20v-70h20v70h20v-70h21l-3 43-3 42-47 3-48 2v-45zm-393-72c-4-3-7-33-7-65v-58h20l1 28 1 27 11-27c15-38 26-35 24 5 0 17 3 39 7 48l7 16-16 17c-17 17-37 21-48 9zm33-33v-20h-20v40h20v-20zm42-12-12-12v-55l18-9c19-10 42-5 42 9v9h-40v20h41l-3 22-3 23-15 3c-9 1-21-3-28-10zm28-18c0-5-4-10-10-10-5 0-10 5-10 10 0 6 5 10 10 10 6 0 10-4 10-10zm42 18c-7-7-12-22-12-34v-23l16-15 16-16 9 5c14 9 11 25-6 25h-15v50h15c8 0 15 5 15 10 0 14-23 13-38-2zm55 6c-4-4-7-22-7-39v-33l13-11 14-11 17 13 18 13-4 34-3 35-20 3c-12 2-24 0-28-4zm33-39v-25h-20v50h20v-25zm35 8c12-67 26-71 43-14 14 46 15 51 3 51-5 0-12-10-15-22l-7-23-9 23c-5 12-12 22-16 22h-6l7-37zm65 18c-14-27-13-47 5-65l16-15 14 5c22 9 18 21-7 29l-23 8 28 4 27 4v13c0 16-21 36-37 36-7 0-17-9-23-19zm30-11c0-5-5-10-11-10h-10l6 10c3 6 8 10 11 10 2 0 4-4 4-10zm40-15v-45h20v70h10c14 0 23-46 16-81l-6-31 13 4c11 4 27 41 41 101l6 27h-9c-5 0-12-10-15-22l-7-23-9 23-9 22h-51v-45z"/></g><g fill="#80c8e1" transform="matrix(.1 0 0 -.1 0 300)"><path d="m1373 2879-92-9-113-29-113-29-95-42-95-42-65-9-65-9-73-36-73-36-55-54-54-54-24-48c-13-27-28-66-32-87l-7-38-55-81c-104-152-183-348-218-537l-17-94v-310l22-102c63-300 205-555 418-753l78-72 102-68 102-68 93-40c118-52 246-89 373-108l100-16 140 5 140 5 82 16c172 34 386 124 522 219l64 45 27-20c15-10 43-23 63-28l36-8 45 10 45 9 35 39 35 39 10 38c14 50 14 63-5 138l-16 63 45 74c95 158 157 313 193 483l19 90-1 175v175l-22 102c-32 150-95 313-160 417l-24 39 16 34c9 18 16 44 16 57v24l-16 13-16 13-29-16-28-17-68 70c-247 252-491 392-785 448l-103 19-105 5-105 5-92-9zm337-44c52-7 136-26 185-40l90-26 120-58 121-59 81-60c79-59 223-188 223-201 0-3-18-16-39-28l-38-22-35-53c-20-29-61-111-92-183l-56-129-20-20-20-20v26c0 14 9 54 20 89 26 85 50 202 50 244v34l-21 12-21 11-29-21-29-21-19 12-19 12-17-14c-21-17-47-69-80-155-31-84-81-179-106-201l-19-17v11c0 6 11 46 25 89 26 84 55 212 55 244v20l-16-3-16-3-64-144c-36-80-77-161-91-180l-27-35-4 12c-2 6 13 75 32 153 39 153 42 179 26 210l-11 19h-36l-17-19-18-20-23 11-22 10-20-10-20-11-52-119c-28-65-68-145-89-178l-37-59-3 26-3 25 41 128c22 70 40 138 40 151v25h-29l-19-27c-11-16-39-70-62-122-64-143-112-217-131-206l-7 5 14 61c8 33 29 95 46 137l32 77-1 33-1 34-28 29-28 29h-73l-29-22c-46-36-63-59-95-125l-30-61-6-69-6-70 12-36 13-37 24-6 24-6 17 13c9 8 29 34 44 58l28 44-6-36c-3-20-3-47 1-61l6-26 25-6 25-6 23 15 24 15 37 71c20 39 39 71 41 71s-4-22-12-49l-16-48 7-26 6-26 21-6 20-7 23 15 23 15 37 72c39 74 58 90 31 27-18-42-19-80-5-108l11-19h40l66 140c37 77 68 139 69 137 2-1-8-45-21-97-14-52-25-111-25-130v-36l12-12c29-29 65-5 113 78l26 45-6-35-6-35 10-28 11-27h49l19 28c11 15 32 51 46 80 15 30 29 52 31 50s-3-25-12-51l-16-48 10-32 9-32h39l32 54c18 30 49 97 70 150l38 96 3-23 3-22-25-88c-26-88-31-127-20-156l6-16h44l26 28 27 27 27 64 28 64 13-39c16-45 37-64 72-64h25l29 28 29 27-7-35c-11-53-45-149-72-203l-23-47 23-9c12-5 34-21 47-35 14-14 28-26 32-26s21 28 37 63l31 62 16 105c8 58 22 141 30 185l14 79 14 14 14 14 27-46c63-107 121-273 149-425l16-83v-295l-15-89c-19-105-71-267-116-356-43-87-99-178-108-178-11 0-107 244-117 295l-7 40-18-67c-10-37-37-109-60-160-22-51-54-126-71-167l-30-75-5-52-6-52 17-33 16-33-8-5c-198-141-370-216-582-256l-95-18h-300l-102 22c-133 28-256 71-373 132-126 66-215 132-330 248l-96 96-67 101c-99 149-163 303-204 486l-18 83v190l1 190 26 105c43 173 106 320 190 443l40 59 32-31c47-46 78-36 41 13l-15 20v28c0 98 128 225 271 269 33 10 65 19 69 19h8l-23-72c-13-40-51-158-85-261l-61-189 3-26 3-27 27-9 27-9 15 13 16 13 25 82c14 46 31 88 38 94l13 10 22-6 22-5v-28c0-32-29-119-59-179l-22-43-35 6-34 7-62-11-63-12-55-25-55-26-80-81-80-81-37-75-37-76-16-83-17-84 6-51c3-28 13-73 22-100l16-48 37-37c20-21 45-43 56-49l20-11-21-15-22-16-6-25-7-26 11-39 10-38 51-46 51-46 56-16 55-16 55 12 55 12 42 42 42 42 26 56c34 71 57 159 57 215v44l14 34c16 38 152 241 168 251 21 13 18-6-7-44-14-22-37-71-50-108l-25-69v-107l29-29c33-32 47-35 87-17l28 13 48 75 48 75v-23c0-34 18-62 47-73l26-10 23 16 23 15 20 45c11 25 23 45 26 45 4 0 3-24 0-54l-7-54 11-21 12-21h51l27 27c15 16 46 61 70 101 23 39 44 72 46 72s-1-15-6-32c-5-18-9-58-9-89v-56l21-27 20-26h59l40 36c22 20 61 68 87 108 25 39 50 75 54 80l7 8-5-58-5-59 24-45 24-45 37-14 36-13 43 21 44 21 51 67c28 38 69 101 93 141 23 41 43 72 45 70 1-2 32-78 69-170l66-166 6-59 6-58-15-37-15-36-26-17c-14-9-41-21-60-25l-35-8-45 10-45 9-25 25-25 25-6 32c-4 18-9 40-11 50l-5 17h-26l-23-43-23-43 7-38 7-37 38-38 38-38 48-17 49-16h117l38 20c44 22 83 65 113 124l21 40 5 63 5 62-28 88c-14 48-47 135-72 192l-44 103-1 31-1 30 27 24 27 23h56l16-17c8-10 20-38 27-63 13-49 35-80 57-80h13v121l-20 38c-10 21-33 50-50 64l-31 26-40 11-40 11-44-21-44-21-25-52c-14-28-26-61-26-73v-22l-37-49c-20-26-65-85-100-130l-65-81-44-24-44-23-17 11-18 11-3 23c-2 12-1 38 3 56l6 33 42 31c24 17 51 44 61 60l17 30 1 30 1 30-18 20-18 20h-50l-44-45c-23-25-89-107-145-183l-103-137-10 5-10 5 2 60 1 60 21 56c12 31 35 76 52 99l30 41 30 11c33 12 35 15 13 46l-15 22h-20c-55 0-142-84-199-191-67-128-128-205-146-186-9 9 35 134 73 211l35 69-12 26c-30 66-37 76-61 90l-25 14-37-7-37-7-33-29c-35-31-48-53-135-240l-59-125-26-23-25-24-19 4-18 3-3 28-3 27 42 83c24 45 54 103 67 130l25 47-17 19c-10 11-30 25-46 31l-29 12 9 22 8 22-9 17-10 17h-47l-26-31c-30-35-30-35-15-77l11-31-63-96-63-95-18 60c-19 69-45 118-70 134l-18 11-53-53c-56-55-67-61-67-37v15h-14c-8 0-29-12-47-27l-32-27-13-32-14-33 6-16 6-15 25-7 26-6 48 21 49 20v-14c0-8-9-32-20-54l-20-39-36-27-36-28-58-4-57-4-35 35-35 35-12 45c-6 25-11 72-11 104v58l15 54c51 195 225 377 388 406l37 7v-123l16-32c24-47 43-65 76-72l30-7 34 7 34 6 36 31 35 31 25 48c26 52 54 148 54 187v24l-12-4-12-4-17-57-17-56-47-71c-26-39-54-74-63-77l-15-6-19 22-18 23v108h11c6 0 24-10 41-21l30-21 11 11 11 11-41 37-41 37 26 65 25 66 1 62 1 61-23 31-22 30 22 12c13 7 40 25 61 42l38 29 29 52 30 51v116l-14 27c-21 39-65 79-111 98l-40 16 55 25c77 34 210 72 310 88l85 13 115 1 115 1 95-15zm-722-241 22-14v-61l-17-32c-20-39-132-157-149-157h-12l39 98 38 97 7 48 7 48 21-7c11-3 31-12 44-20zm1598-308 5-14-49-104c-27-56-58-114-69-127l-20-24-18 7-18 6 5 44 5 43 27 59 27 59 32 33 31 32h37l5-14zm-1287-162c-37-75-72-141-78-147l-11-11-7 7-7 8 12 57c6 31 26 85 42 119l31 62 26 21c14 11 33 20 43 20h17l-68-136zm111-559c0-8-15-36-34-62-18-27-43-70-55-97-25-57-67-116-83-116h-11l6 40 5 41 37 77c20 42 48 89 62 105l27 27h46v-15zm570-43v-28l-30-34-30-35 21 54c30 81 39 91 39 43zM724 1368c17-66-6-193-53-286l-29-58-45-41-45-42-34-6-33-6-30 11c-17 6-40 21-52 32l-23 21v75l15 12 16 13 24-11c13-6 34-25 46-41 13-17 26-31 30-31h8l-11 33c-6 17-22 44-36 59l-25 27 29 7c50 12 100 42 132 79 37 42 72 106 72 133 0 18 18 42 31 42 4 0 9-10 13-22zm1754-725c-7-14-21-31-31-37l-18-11-9 15c-5 8-10 29-10 45v30l35 100c19 55 36 111 37 125s4-35 5-108l4-133-13-26zm-461 1799c-18-19-22-48-11-76l6-16h57l11 19c14 28 12 57-6 75-20 21-37 20-57-2zm-436-6-12-15 3-32 3-32 18-11 17-11 18 11c9 6 21 23 27 38l9 27-10 17-11 17-25 3-25 3-12-15zm547-616-56-7-33-19c-17-10-36-26-42-35l-10-16 6-25c4-14 19-37 34-53 30-29 133-85 158-85h15v19c0 11 2 26 6 34l5 14-62 13-62 13-19 19-18 18 11 21 11 21 36 15 37 15 112-4 113-4v8c0 28-139 50-242 38zm495-260c-7-29-29-89-49-134-19-44-44-105-55-133l-19-53v-85l20-32c10-18 31-40 45-49l26-17 44 1h44l30 21 29 21 18 45 17 45-7 41c-4 23-29 100-58 173-28 72-56 148-62 169l-11 39-12-52zm-3-280-11-20h-28l-6 21-7 21 29 90 28 89 3-90 3-91-11-20zm-445 69c-10-29-33-85-51-125l-32-72-7-43-6-44 20-32 20-32 42-12 41-13 37 20 36 19 15 42 14 43-21 62c-12 35-37 103-56 152l-35 88-17-53zm5-189c-13-24-28-26-36-5l-6 14 24 75 23 75 3-69 3-70-11-20zM850 970v-71l26 3 27 3 10 16 10 16-8 19c-4 11-8 33-9 49l-1 30-27 3-28 3v-71zm39 51 14-9-6-16-6-16h-31v25c0 27 6 30 29 16zm6-81v-25h-30l-3 28-3 29 18-4 18-3v-25zm48 30v-75l4 38c2 20 2 54 0 75l-4 37v-75zm44 63c-4-3-7-32-7-64v-58l10-6 10-6v61h9c5 0 14-15 21-32l12-33 5 12c2 7-1 22-7 34l-12 21 11 11c6 6 11 21 11 33v22l-16 6c-20 8-39 8-47-1zm42-12 14-9-6-16-6-16h-31v25c0 27 6 30 29 16zm44 7 16-13 4-60 3-60 2 67 2 66 13 5 12 5-34 1-35 1 17-12zm69-58 1-75 6 35 6 35h50l6-35 6-35v150l-4-33-4-33-27 3-27 3-6 30-7 30v-75zm150 58c-18-18-15-35 14-62l27-24-7-17-6-16-21 6-22 7 7-11c4-6 16-11 26-11h19l11 20 11 20-26 26-26 26 3 16 4 17 17-1c9-1 17 2 17 7 0 13-34 11-48-3zm78-58v-70l28 1h27l-22 9-23 9v42l23 9 22 9h-22l-23 1v41l23 9 22 9h-27l-28 1v-70zm82-2 1-73 4 33 4 32h11c5 0 15-13 21-30 6-16 15-30 19-30h8l-11 27-10 27 12 28 11 28-12 15-12 15h-48l2-72zm46 34 3-22h-41v18c0 38 33 41 38 4zm36 9c11-61 27-111 35-111 5 0 16 29 25 65 19 74 19 78 7 71-5-3-12-26-15-51l-7-45h-9c-4 0-11 17-15 38-3 20-11 44-16 52l-11 15 6-34zm99-41v-75l4 38c2 20 2 54 0 75l-4 37v-75zm47 51c-5-11-10-34-10-51s5-40 10-51l11-19h24c14 0 25 4 25 8 0 5-10 8-22 8l-22-1-10 28-10 27 10 28 10 27 22-2 22-3v20h-49l-11-19zm84 5c-3-7-4-38-2-67l3-54 30-2 30-1-22 5-23 4v58l18 4 17 5-17 1-18 1v41l23 9 22 9h-28l-28 1-5-14zm88 2c-7-7-12-19-12-27v-15l27-22 26-21-6-17-7-17-22 6-23 7 11-12 12-12 18 4 19 3 3 25 4 24-26 21-27 21 7 18 7 18 18-5 19-5v9c0 13-34 11-48-3zm-712-265c0-16-4-35-9-42l-10-15 10-18 9-17 28 2 27 2v55l-12-4c-7-3-15-1-18 4l-5 9 10 6c5 3 10 15 10 26v19h-40v-27zm30 2c0-8-4-15-10-15-5 0-10 7-10 15s5 15 10 15c6 0 10-7 10-15zm-5-65c0-7-6-15-12-17l-13-5v44l13-4c6-3 12-11 12-18zm86 28 2-63 4 27 4 27 19 6c10 3 21 13 24 22l6 16-11 13c-6 8-20 14-30 14h-19l1-62zm39 32v-20h-30v40h30v-20zm157 8c-5-15 3-80 12-90l6-7-1 49c-1 51-8 72-17 48zm235-37 3-54 15-5 15-5-14 16-13 17 5 28 6 28-10 14-9 15 2-54zm-363 8-11-22 11-24 11-24 18 3 17 3 3 28 3 28-12 15c-16 19-26 18-40-7zm39-30-3-22-12-5-13-4v30c0 16 3 32 7 36l7 6 9-9 9-9-4-23zm35 36-5-16 16-18c20-22 20-28-1-34l-18-5 18-1 18-1 6 16 6 17-16 12c-10 7-17 18-17 25v12l16-6 15-6-6 10c-9 15-25 12-32-5zm110 8-13-5 1-61 2-62 4 28 4 27 10-6 10-6 14 12 15 12v22c0 12-5 27-12 34-13 13-16 13-35 5zm31-19c13-33-13-70-29-43l-7 10 6 25c7 28 21 31 30 8zm41 16-6-10 12 2c6 2 13-2 16-8l4-11-21-6-22-6 4-18 3-18 23-3 23-4-3 43-3 42-12 4c-6 2-14-1-18-7zm25-48c0-13-12-22-22-16l-8 5 5 10c8 11 25 12 25 1zm53 51-13-5 2-41 1-42 4 35c3 19 9 41 15 47 11 14 10 14-9 6zm160 0-13-5 1-41 1-42 5 20c2 11 6 30 9 43 2 12 9 22 14 22h10l1-37c1-39 3-38 13 10 4 15 11 27 16 27h10v-70h20v28c0 15-4 32-8 38l-7 11h-30c-16 0-36-2-42-4zm-89-37 1-39 15-5 15-5-12 14c-6 8-13 28-16 44l-5 30 2-39zm36-1v-35h20v70h-20v-35zm-359-137 2-63 4 25c3 14 8 29 13 33l8 9 11-33c6-18 13-30 16-27s1 16-3 29l-9 24 10 16 10 16-6 17-6 16h-51l1-62zm44 32v-15l-17-3-18-3v42l18-3 17-3v-15zm34-21-11-22 11-23 11-24h14c8 0 18 5 22 11l7 11-22-7-21-6v31h40v13c0 14-19 37-32 37-4 0-12-10-19-21zm41-10c0-5-7-9-15-9-15 0-20 12-9 23 8 8 24-1 24-14zm29 10-11-22 11-23 11-24 17 1 18 1-18 5-18 5 3 31 3 32 13-2c6-2 12 2 12 7 0 6-7 10-15 10h-14l-12-21zm63 9c-25-25-8-78 25-78h13l6 27 7 26-10 15c-13 21-26 25-41 10zm32-14c13-33-13-70-29-43l-7 10 6 25c7 28 21 31 30 8zm103 20c-4-4-7-22-7-41v-34l16-6 15-6 11 11 10 10-17-1-18-2-4 13-5 12h43l-3 22-3 23-15 3c-9 1-19 0-23-4zm33-25c0-5-7-9-15-9-15 0-20 12-9 23 8 8 24-1 24-14zm43 24-13-5v-36l1-37 14 40c16 43 15 44-2 38zm-147-30c4-15 10-35 15-43l8-15 10 28c6 16 11 36 11 45l-1 17-14-30-13-30-1 22c-1 12-6 25-11 28l-11 7 7-29zm179 12c2-11 7-32 11-48l6-27-13-17-14-16 15 5 14 4 13 50c15 59 16 81 1 40l-11-29-13 29-14 29 5-20z"/></g><g fill="#5399c2" transform="matrix(.1 0 0 -.1 0 300)"><path d="m1373 2879-92-9-113-29-113-29-95-42-95-42-65-9-65-9-73-36-73-36-55-54-54-54-24-48c-13-27-28-66-32-87l-7-38-55-81c-104-152-183-348-218-537l-17-94v-310l22-102c63-300 205-555 418-753l78-72 102-68 102-68 93-40c118-52 246-89 373-108l100-16 140 5 140 5 82 16c172 34 386 124 522 219l64 45 27-20c15-10 43-23 63-28l36-8 45 10 45 9 35 39 35 39 10 38c14 50 14 63-5 138l-16 63 45 74c95 158 157 313 193 483l19 90-1 175v175l-22 102c-32 150-95 313-160 417l-24 39 16 34c9 18 16 44 16 57v24l-16 13-16 13-29-16-28-17-68 70c-247 252-491 392-785 448l-103 19-105 5-105 5-92-9zm453-63c171-43 290-95 439-193l91-60 89-87 90-87-14-6c-8-3-33-23-56-44l-42-39-31-57c-17-32-47-98-67-148-20-49-46-105-57-122l-20-33h-14c-18 0-19-1 15 115 16 55 34 135 41 177l13 77-6 15-6 16h-60l-12-21-11-21-11 11c-6 6-21 11-33 11h-22l-16-24c-8-14-34-71-57-128-45-115-77-174-108-202l-21-19v15c0 9 13 59 29 111 17 53 35 123 41 157l11 60-6 10c-13 22-25 5-80-119-31-71-73-156-93-188l-37-58-3 21c-2 12 13 88 34 169l36 148-9 31-9 31-21 3-21 3-16-22-15-23-26 14-26 14-23-25-23-24-48-110c-52-119-108-215-126-215h-11l6 28c4 15 25 86 48 159l41 131-6 16-6 16-16-6-16-7-74-151c-69-142-103-196-125-196-6 0-10 6-10 13 0 26 40 155 64 207l26 55v77l-29 29-29 29h-59l-34-23c-18-12-48-42-66-65l-33-43-17-57-18-57v-143l19-21c11-12 25-21 32-21 20 0 60 41 84 85l22 40-7-48-6-48 16-25 15-24h14c8 0 28 11 44 24l29 25 32 60c18 34 33 61 35 61s-3-25-11-56l-14-55 16-25 15-24h15c23 0 59 45 105 131 23 44 44 79 46 77s-8-31-21-64c-14-32-25-69-25-80v-22l19-23 20-24 19 20c10 11 45 77 78 147 32 70 60 123 62 118 2-4-8-55-22-112-14-56-26-115-26-129v-27l15-12 14-12 18 4 18 3 42 64 42 64 3-59 3-59 22-3 21-3 21 22c11 12 41 61 67 108 25 47 43 77 39 66s-15-46-26-79l-20-58 11-34 12-34h28l26 42c15 24 47 90 71 148s49 110 54 115l10 10-6-30c-3-16-18-73-32-126l-26-97 7-26 7-27 14-6 15-5 26 17 27 17 36 79c19 44 39 79 43 79h8v-64l22-23 21-23h49l29 29 29 29v-20c0-28-57-196-80-235l-18-31 29-12c16-7 39-24 49-38 11-14 22-23 24-21 12 12 56 109 65 144 5 22 17 94 26 160 16 118 39 210 55 220l8 5 40-78c74-143 115-262 143-422l14-75-1-145-1-145-17-89c-21-108-57-224-97-313-32-72-119-223-128-223-3 0-32 64-63 143l-58 142v-42c0-58 23-162 61-268l31-90 2-58 1-59-33-29-32-29h-91l-28 14-28 15-15 32-16 31-8-13-8-13-12 29-13 30-1-28c0-15 7-44 15-64l16-37-28-22c-95-77-275-165-428-209l-90-26-115-16-115-15-111 5-112 6-101 21c-175 35-325 98-481 200l-92 61-97 94-98 95-56 79c-117 162-199 350-237 546l-20 106v286l15 89c30 173 105 365 201 511l48 73 29-35 28-35h15c17 0 17 8-1 40l-14 25-1 33v33l20 39c11 22 41 61 67 85l47 46 70 34c39 19 89 37 110 41l39 7-8-19c-4-10-25-75-45-144-21-69-57-181-80-249l-42-123 6-24 6-24 26-6 25-7 11 11c7 7 26 53 43 104l31 93 33-2c18 0 35-3 37-6 9-8-16-99-48-172l-31-73-91-4-91-3-69-33-69-32-71-73-71-72-37-70c-20-38-43-94-52-124l-16-55v-171l10-35c5-20 23-57 40-83l30-47 35-17c40-19 44-29 16-38l-19-6-10-29-11-29 10-36 10-36 30-34 30-34 55-27 55-27h104l30 16c17 8 47 33 67 54l37 38 30 65 29 65 11 60c6 32 11 78 11 101v43l91 137 91 136 10-10 9-9-35-64c-19-35-42-91-51-123l-17-59 5-45 5-44 19-20 20-19 32-1 32-1 30 29c17 16 44 53 61 83l31 53 13-37c15-45 29-56 69-53l30 3 33 63c19 35 35 62 37 60s-1-27-6-57l-8-55 5-23 6-22 20-7 20-6 24 12c24 13 40 35 109 145l37 60-7-25c-12-46-17-119-11-155l7-35 24-16 25-16 24 6c41 10 84 54 148 150l60 91-6-49-6-49 10-38 11-38 25-31 26-30h92l47 49c54 56 115 143 154 220l27 54 70-174 70-174 5-70 4-70-20-32c-11-18-32-40-47-50l-28-18-55 1h-56l-32 17-33 17-14 28c-8 15-17 44-21 65-4 20-11 37-15 37-15 0-48-50-55-81l-7-29 21-43 21-42 35-24c19-13 51-29 72-37l38-13 56-1h56l44 23 44 23 38 55 37 54 12 57 12 58-13 62-12 63-51 125c-28 69-57 143-65 164l-14 39 11 27 11 27 25 12c14 6 35 11 48 11h23l16-18c10-10 24-41 32-69l15-51 15-12 16-13 11 11 11 11-5 59-4 60-27 41-28 42-32 19-32 20h-97l-38-38-38-37-11-40c-6-22-11-47-11-55s-47-74-103-145l-104-130-30-17c-17-10-40-18-51-18h-20l-12 15-13 15 6 47 5 46 50 46c57 52 72 77 72 120v30l-22 15c-12 9-30 16-40 16h-18l-41-42c-23-24-80-95-127-158-93-126-131-170-145-170h-10l6 75 5 75 33 70 32 71 34 29c19 17 40 30 48 30 21 0 19 16-6 41l-21 21-26-7c-62-15-112-70-193-211-28-49-65-106-81-126l-30-38h-28v15c0 22 46 141 83 214l32 64-12 4-12 4-7 34-6 34-16 14c-10 8-30 17-45 21l-28 7-44-20-44-19-25-39c-14-21-50-94-81-162-76-170-106-211-152-211h-23v70l61 115 60 116-3 22-3 22-35 17-35 18v75l-21 3-20 3-28-22-28-22 6-51 6-51-62-93-62-94-22 71c-12 39-29 82-38 96l-16 25h-46l-44-45c-47-48-60-54-60-30v15h-32l-39-39-39-39v-60l15-12 14-12 33 7c18 4 45 14 61 21l27 15v-16c0-9-6-30-14-48l-13-32-36-32-37-32-41-11-40-11-34 11-34 11-25 30c-14 16-30 46-36 67l-10 37v75l1 75 22 66c12 36 38 92 57 124l35 59 60 60 60 61 62 33 61 32 44 6 43 6-3-56-4-56 22-45 22-46 31-15 30-16 39 5c48 6 79 26 113 71l27 35 23 68c13 37 25 85 27 105l3 37-9 1-9 1-18-55c-25-84-111-216-140-216-5 0-15 13-24 30l-15 29v101h13c7 0 22-7 33-15 22-17 44-19 44-5 0 13-41 55-59 61l-13 5 27 74 27 75 1 50 1 51-22 36-22 35 39 26c55 36 100 85 122 132l19 40v96l-20 40-21 40-46 30c-26 16-53 29-60 29-31 0-8 20 50 44 84 34 190 65 284 82l78 13 180-3 180-4 101-26zm-833-223 17-16v-68l-17-27c-39-61-147-171-158-160-3 3 13 51 34 109 21 57 42 123 46 147l7 44 27-7c14-4 34-14 44-22zm1597-310c0-9-18-57-40-108l-41-92-28-33-28-33-16 6-17 6v29c0 75 60 196 115 232l28 18 13-5c8-3 14-12 14-20zm-1225-24 7-10-25-38c-14-20-48-86-76-145l-50-108-12 8-11 7 5 48 6 48 34 73 34 73 32 28c35 29 46 33 56 16zm49-688 6-9-30-40c-16-22-47-76-69-119-46-90-63-113-81-113h-13l7 46 6 47 34 72 35 71 27 27 27 27h23c12 0 25-4 28-9zm563-72c-13-31-57-81-57-66 0 4 11 32 25 63l25 58 11-11 10-10-14-34zM726 1364c4-14 4-56 1-93l-6-67-20-58c-11-32-35-80-52-108l-32-50-36-24c-20-13-51-27-69-30l-33-7-38 17-38 17-16 29c-9 15-17 36-17 46 0 23 29 54 50 54h18l36-37 36-37v12c0 19-26 66-44 81-24 20-19 28 22 35l37 6 38 25c21 15 51 45 67 67l30 41 11 41c18 68 44 86 55 40zm854 1067c-5-11-10-31-10-44v-25l15-12 14-12 18 4 17 3 15 27 15 26-12 26-12 26h-49l-11-19zm432 7c-7-7-12-24-12-38 0-32 17-50 46-50h22l12 29 12 29-12 21-11 21h-22c-13 0-28-5-35-12zm62-628c-17-5-43-21-57-34l-27-25v-40l29-34c28-32 102-78 147-91l22-7 11 31 10 31-12 4c-7 2-37 11-68 19l-56 16-13 15-13 16 11 23 10 23 49 13 48 14h65c36 0 82-4 103-8l37-7v10c0 6-10 16-22 22l-23 13-110 3-110 2-31-9zm570-301 5-65 30-96 31-95v-92l-26-20-27-21h-64l-27 21-26 20v31l-14-5-15-6-4 17-5 17-1-23c0-12 8-41 19-62l20-40 30-15 29-15h35c19 0 47 5 61 12l25 11 19 31c11 17 22 47 26 66l6 35-24 75c-14 41-44 122-66 180l-42 105 5-66zm-447-180c3-24 16-77 29-117l24-72v-79l-30-16-30-15-25 6-26 6-16 24-15 24-9-6c-16-10-9-33 19-65l28-31 41-2 41-1 23 20c12 11 28 34 35 52l14 32-6 33c-7 35-82 227-95 242l-7 8 5-43zM850 970v-71l26 3 27 3 10 16 10 16-8 19c-4 11-8 33-9 49l-1 30-27 3-28 3v-71zm39 51 14-9-6-16-6-16h-31v25c0 27 6 30 29 16zm6-81v-25h-30l-3 28-3 29 18-4 18-3v-25zm48 30v-75l4 38c2 20 2 54 0 75l-4 37v-75zm44 63c-4-3-7-32-7-64v-58l10-6 10-6v61h9c5 0 14-15 21-32l12-33 5 12c2 7-1 22-7 34l-12 21 11 11c6 6 11 21 11 33v22l-16 6c-20 8-39 8-47-1zm42-12 14-9-6-16-6-16h-31v25c0 27 6 30 29 16zm44 7 16-13 4-60 3-60 2 67 2 66 13 5 12 5-34 1-35 1 17-12zm69-58 1-75 6 35 6 35h50l6-35 6-35v150l-4-33-4-33-27 3-27 3-6 30-7 30v-75zm150 58c-18-18-15-35 14-62l27-24-7-17-6-16-21 6-22 7 7-11c4-6 16-11 26-11h19l11 20 11 20-26 26-26 26 3 16 4 17 17-1c9-1 17 2 17 7 0 13-34 11-48-3zm78-58v-70l28 1h27l-22 9-23 9v42l23 9 22 9h-22l-23 1v41l23 9 22 9h-27l-28 1v-70zm82-2 1-73 4 33 4 32h11c5 0 15-13 21-30 6-16 15-30 19-30h8l-11 27-10 27 12 28 11 28-12 15-12 15h-48l2-72zm46 34 3-22h-41v18c0 38 33 41 38 4zm36 9c11-61 27-111 35-111 5 0 16 29 25 65 19 74 19 78 7 71-5-3-12-26-15-51l-7-45h-9c-4 0-11 17-15 38-3 20-11 44-16 52l-11 15 6-34zm99-41v-75l4 38c2 20 2 54 0 75l-4 37v-75zm47 51c-5-11-10-34-10-51s5-40 10-51l11-19h24c14 0 25 4 25 8 0 5-10 8-22 8l-22-1-10 28-10 27 10 28 10 27 22-2 22-3v20h-49l-11-19zm84 5c-3-7-4-38-2-67l3-54 30-2 30-1-22 5-23 4v58l18 4 17 5-17 1-18 1v41l23 9 22 9h-28l-28 1-5-14zm88 2c-7-7-12-19-12-27v-15l27-22 26-21-6-17-7-17-22 6-23 7 11-12 12-12 18 4 19 3 3 25 4 24-26 21-27 21 7 18 7 18 18-5 19-5v9c0 13-34 11-48-3zm-712-265c0-16-4-35-9-42l-10-15 10-18 9-17 28 2 27 2v55l-12-4c-7-3-15-1-18 4l-5 9 10 6c5 3 10 15 10 26v19h-40v-27zm30 2c0-8-4-15-10-15-5 0-10 7-10 15s5 15 10 15c6 0 10-7 10-15zm-5-65c0-7-6-15-12-17l-13-5v44l13-4c6-3 12-11 12-18zm86 28 2-63 4 27 4 27 19 6c10 3 21 13 24 22l6 16-11 13c-6 8-20 14-30 14h-19l1-62zm39 32v-20h-30v40h30v-20zm157 8c-5-15 3-80 12-90l6-7-1 49c-1 51-8 72-17 48zm235-37 3-54 15-5 15-5-14 16-13 17 5 28 6 28-10 14-9 15 2-54zm-363 8-11-22 11-24 11-24 18 3 17 3 3 28 3 28-12 15c-16 19-26 18-40-7zm39-30-3-22-12-5-13-4v30c0 16 3 32 7 36l7 6 9-9 9-9-4-23zm35 36-5-16 16-18c20-22 20-28-1-34l-18-5 18-1 18-1 6 16 6 17-16 12c-10 7-17 18-17 25v12l16-6 15-6-6 10c-9 15-25 12-32-5zm110 8-13-5 1-61 2-62 4 28 4 27 10-6 10-6 14 12 15 12v22c0 12-5 27-12 34-13 13-16 13-35 5zm31-19c13-33-13-70-29-43l-7 10 6 25c7 28 21 31 30 8zm41 16-6-10 12 2c6 2 13-2 16-8l4-11-21-6-22-6 4-18 3-18 23-3 23-4-3 43-3 42-12 4c-6 2-14-1-18-7zm25-48c0-13-12-22-22-16l-8 5 5 10c8 11 25 12 25 1zm53 51-13-5 2-41 1-42 4 35c3 19 9 41 15 47 11 14 10 14-9 6zm160 0-13-5 1-41 1-42 5 20c2 11 6 30 9 43 2 12 9 22 14 22h10l1-37c1-39 3-38 13 10 4 15 11 27 16 27h10v-70h20v28c0 15-4 32-8 38l-7 11h-30c-16 0-36-2-42-4zm-89-37 1-39 15-5 15-5-12 14c-6 8-13 28-16 44l-5 30 2-39zm36-1v-35h20v70h-20v-35zm-359-137 2-63 4 25c3 14 8 29 13 33l8 9 11-33c6-18 13-30 16-27s1 16-3 29l-9 24 10 16 10 16-6 17-6 16h-51l1-62zm44 32v-15l-17-3-18-3v42l18-3 17-3v-15zm34-21-11-22 11-23 11-24h14c8 0 18 5 22 11l7 11-22-7-21-6v31h40v13c0 14-19 37-32 37-4 0-12-10-19-21zm41-10c0-5-7-9-15-9-15 0-20 12-9 23 8 8 24-1 24-14zm29 10-11-22 11-23 11-24 17 1 18 1-18 5-18 5 3 31 3 32 13-2c6-2 12 2 12 7 0 6-7 10-15 10h-14l-12-21zm63 9c-25-25-8-78 25-78h13l6 27 7 26-10 15c-13 21-26 25-41 10zm32-14c13-33-13-70-29-43l-7 10 6 25c7 28 21 31 30 8zm103 20c-4-4-7-22-7-41v-34l16-6 15-6 11 11 10 10-17-1-18-2-4 13-5 12h43l-3 22-3 23-15 3c-9 1-19 0-23-4zm33-25c0-5-7-9-15-9-15 0-20 12-9 23 8 8 24-1 24-14zm43 24-13-5v-36l1-37 14 40c16 43 15 44-2 38zm-147-30c4-15 10-35 15-43l8-15 10 28c6 16 11 36 11 45l-1 17-14-30-13-30-1 22c-1 12-6 25-11 28l-11 7 7-29zm179 12c2-11 7-32 11-48l6-27-13-17-14-16 15 5 14 4 13 50c15 59 16 81 1 40l-11-29-13 29-14 29 5-20z"/></g><g fill="#858687" transform="matrix(.1 0 0 -.1 0 300)"><path d="m1373 2879-92-9-113-29-113-29-95-42-95-42-65-9-65-9-73-36-73-36-55-54-54-54-24-48c-13-27-28-66-32-87l-7-38-55-81c-104-152-183-348-218-537l-17-94v-310l22-102c63-300 205-555 418-753l78-72 102-68 102-68 93-40c118-52 246-89 373-108l100-16 140 5 140 5 82 16c172 34 386 124 522 219l64 45 27-20c15-10 43-23 63-28l36-8 45 10 45 9 35 39 35 39 10 38c14 50 14 63-5 138l-16 63 45 74c95 158 157 313 193 483l19 90-1 175v175l-22 102c-32 150-95 313-160 417l-24 39 16 34c9 18 16 44 16 57v24l-16 13-16 13-29-16-28-17-68 70c-247 252-491 392-785 448l-103 19-105 5-105 5-92-9zm406-50c265-54 498-179 691-370l70-70-47-32-48-32-32-53c-17-30-50-97-73-150-54-127-71-160-92-179l-18-16-6 17-6 16 10 38c6 20 19 69 30 107 11 39 25 101 31 139l10 70-11 13c-15 19-42 16-62-6l-18-20-24 11-25 12-19-20-20-19-40-100c-51-127-74-173-103-209l-23-29-11 4-11 4 35 120 34 120 6 60 5 60-10-10c-6-6-38-69-71-142-58-130-113-223-131-223-14 0-14 4 25 154l35 137v87l-14 11-13 11-17-6c-9-3-16-9-16-13 0-3-4-12-9-20l-9-15-16 13-15 13-23-4-23-3-17-35c-10-19-40-84-68-145-50-108-92-175-111-175h-9v19c0 11 20 82 45 158s45 144 45 151v13l-17-3-18-3-76-153c-42-84-87-164-99-177l-23-24-9 5-10 6 7 45c6 39 19 79 73 218l15 41-6 26c-4 14-15 36-26 49l-19 24-40-1-40-1-30-22c-17-11-44-42-61-68l-32-48-16-54c-17-60-22-141-10-183l7-27 19-11 20-10 29 25 30 25 22 45c12 25 23 45 24 45s2-33 2-72l-1-73 28-3 28-3 15 12c8 6 33 45 56 85 23 41 45 74 49 74s0-19-8-42l-14-41 3-36 3-36 27-3 26-3 25 33c14 18 38 60 55 93 31 61 61 106 62 92 0-4-11-34-25-67l-25-59v-80l19-10 19-11 9 13c6 6 23 39 38 72 16 33 45 96 66 140l38 80v-28c1-15-8-63-20-107-11-43-21-97-22-120l-1-41 13-9 14-8 22 10c22 10 33 24 76 102l27 49-1-67-2-68 17-11 17-11 19 17c10 9 40 57 66 107 26 49 51 92 57 95l9 6-25-66-25-67v-79l17-6 16-6 24 29c12 16 41 72 63 124 23 52 48 111 57 130l17 35 3-21 4-21-22-79c-13-43-25-105-27-136l-4-58h51l19 20c20 22 82 142 82 160 0 5 5 10 10 10h10v-24c0-14 4-36 10-50l9-25 21-11 22-12 29 12 28 12 22 32 21 31-6-40c-7-53-42-158-72-218l-24-49 6-9c3-5 10-9 17-9 6 0 24-12 39-27l28-27 14 20c8 10 24 43 35 72l21 53 16 122c9 67 25 153 36 190l19 68 12-3c16-5 107-187 134-268 32-96 44-145 59-245l14-90v-220l-15-95c-18-112-63-263-106-356-38-81-117-214-129-214-8 0-29 48-89 200l-30 75 5-55c8-72 29-155 65-258l29-84V493l-20-25c-10-14-33-31-50-38l-30-13-43 6-42 6-32 35-32 34-5-11-4-12-12 15-12 15 8-20c4-11 7-31 8-44l1-25-60-42c-66-45-190-113-245-133-19-8-52-20-72-27-75-28-186-53-279-65l-94-11-135 5-135 5-91 21c-226 51-427 152-604 304-84 71-141 135-225 252l-57 80-48 100c-59 124-83 194-111 326l-23 104v320l18 90c23 113 67 248 113 343 39 81 128 222 140 222 5 0 16-14 25-30l17-30h42l-15 22-16 22v92l29 46 30 46 52 42c66 52 109 74 181 93 63 16 72 14 56-16-6-12-23-64-39-117-15-52-50-163-78-246l-51-152 6-16c4-9 14-21 24-26l17-9 20 14 20 14 23 78c12 43 27 84 33 91l10 13 31-3 31-3-2-45-2-45-35-80-35-80-88-6-88-5-60-28c-32-15-83-45-113-68l-53-41-45-61c-55-74-101-175-115-253l-11-58 5-75 5-75 21-47 21-47 42-35c23-20 48-36 55-36s13-4 13-10c0-5-5-10-12-10-6 0-20-7-30-17l-18-16v-84l28-39 29-40 60-32 61-32h103l37 19c42 22 69 49 104 106 44 73 78 196 78 285v36l81 119c44 66 87 127 95 135l14 14 10-10 10-10-24-34c-31-47-73-155-81-211l-7-47 17-36 17-36 26-7 25-6 26 9 26 9 51 78 51 77 7-32c3-17 14-40 23-50l16-18h44l15 18c9 9 25 36 37 59 11 23 25 44 31 48l10 6-6-74-7-75 23-12 22-12 27 19 26 20 59 96c33 54 61 95 64 93 2-3-3-26-12-52s-16-65-16-86v-39l14-34 15-35h78l38 38c21 20 62 74 91 120 30 45 56 82 58 82 3 0 2-24-1-54s-3-70 1-90l7-35 30-31 31-30h61l32 20 33 20 39 53c47 62 136 207 131 213-2 2-39-43-83-99-43-56-91-113-107-125l-29-24-39-5-40-6-10 28-10 28 13 46 13 46 27 13 28 14 30 40 29 41v24c0 13-5 33-10 44l-11 19h-66l-41-44c-23-25-80-97-127-161-105-142-116-155-132-155-6 0-14 9-18 20l-6 19 11 63c14 74 37 130 80 193l31 45 24 6 25 6v12c0 7-5 17-12 24l-12 12h-54l-34-27c-48-40-63-60-110-138-90-152-137-215-160-215-25 0 9 117 67 232l34 66-14 12-15 12v48l-21 21-21 21-50-4-49-5-34-33c-35-34-38-39-100-175-20-44-48-104-63-133l-26-54-29-24c-16-13-34-24-41-24-19 0-36 22-36 45v22l49 94c27 52 56 108 65 124 9 17 16 38 16 48v18l-40 17-39 17 5 36 6 37-21 7-21 6-25-18-25-18-6-23-7-23 12-25 11-25-25-42c-48-79-100-151-110-149-5 0-16 27-25 59-37 132-66 151-128 82-20-23-45-45-55-50l-17-10-8 20-7 20-32-20-31-20-17-35-16-35 6-19 6-20h30c16 0 46 7 66 15 19 8 39 15 44 15h9l-6-27c-4-16-17-44-30-64l-23-37-36-22-37-23-41-4-42-4-34 18-34 18-25 49-25 48v173l18 55c9 30 32 82 49 115l31 60 75 76 75 76 45 23c40 20 130 50 154 50h8l-6-44-7-45 11-40 11-40 25-31 26-30h100l27 16 27 16 32 47c35 52 72 155 72 201v31l-10-6c-5-3-10-16-10-29s-14-50-31-84l-30-62-43-47-43-48-17 14c-9 7-21 30-27 51l-12 38 7 36c4 20 10 36 13 36s21-10 40-21l34-21 7 7 7 7-39 35-39 36 27 76 26 76v92l-24 35-23 35 29 18c80 47 140 125 153 198l7 38-12 45-13 45-44 39-44 39-30 6c-41 9-36 19 19 43 128 55 270 91 402 102l95 8 105-5 105-5 94-19zm-799-224 30-15 6-26 6-25-18-42-19-42-66-67c-62-63-89-81-89-59 0 5 15 50 34 99 19 50 38 108 41 129 12 71 20 76 75 48zm1609-309 12-14-34-73c-18-41-45-97-60-126l-27-52-19-11-20-10-16 16-16 16 6 32c3 17 16 57 28 90l22 58 41 44 40 44h16c9 0 21-6 27-14zm-1219-41c0-9-8-27-17-42-10-14-43-76-73-137l-55-111-12-3-13-4v93l31 74 30 73 35 36 35 36h39v-15zm40-680 13-16-31-42c-17-23-47-76-67-117-40-83-61-110-83-110h-15l5 48 5 48 33 68c19 38 48 84 66 103l31 33h15c9 0 21-7 28-15zm576-57c-6-33-42-88-57-88-14 0-11 12 16 74l25 57 11-7 11-6-6-30zM731 1345l7-40-13-76-13-76-26-55c-33-70-59-102-109-139l-40-29h-78l-28 14c-15 8-35 26-45 40l-16 25v57l12 12c7 7 23 12 36 12h25l33-36c19-19 34-33 34-29 0 17-35 73-59 92l-26 22 30 1c30 0 97 28 125 52 31 26 70 85 85 129 8 24 17 50 20 57l5 13 17-3 18-3 6-40zm855 1083c-21-29-20-51 2-71 23-21 27-21 46-1l16 15v55l-12 12c-18 18-35 15-52-10zm424-4-11-27 6-18 6-18 20-6 20-7 15 13 15 12-3 36-3 36-27 3-28 3-10-27zm77-617c-26-8-56-22-67-32l-20-18v-54l19-25 20-25 59-31c33-18 67-32 75-32h15l5 22c8 30 3 34-44 42-23 4-54 13-70 22l-29 15v46l18 15c9 9 41 21 71 28l53 12 72-5c39-2 79-8 89-12l17-7v10c0 6-15 15-32 22l-33 11-85 5-85 4-48-13zm206-97-32-19-22-43-22-43-1-55-1-55 62-150 61-151 10-55 11-56-9-36c-11-52-33-81-73-101l-35-16h-83l-33 14-33 14-21 27-22 28-6 39-7 38h-26l-16-30-15-29v-74l26-34 25-33 52-27 52-26h70l70-1 30 16c70 38 127 125 140 218l6 45-15 55c-26 96-43 143-85 239-22 51-43 108-47 126l-6 33 12 22 12 22 34 14 35 15 27-13 26-13 22-64 22-64 14-8 13-8 7 17c10 26 9 63-3 105l-10 38-32 36-32 36-32 13c-18 8-45 14-60 14h-28l-32-20zm352-180c2-14 7-43 10-65s19-82 36-133c16-51 29-107 29-125v-33l-15-21-15-21-34-12-34-11-36 15-36 15-6 15-6 15-14-6-14-5 16-29 15-30 32-19 32-20h60l32 20 32 19 17 32 16 32-4 56-5 56-47 120c-26 66-51 129-56 140l-9 20 4-25zm-439-220c4-25 18-76 31-114 12-38 23-82 23-97v-28l-22-21-22-20h-63l-27 21-26 20v-15c0-8 11-27 25-41l26-25h78l28 24 28 24v117l-39 95c-21 52-40 97-43 100-2 2-1-16 3-40zM850 970v-71l26 3 27 3 10 16 10 16-8 19c-4 11-8 33-9 49l-1 30-27 3-28 3v-71zm39 51 14-9-6-16-6-16h-31v25c0 27 6 30 29 16zm6-81v-25h-30l-3 28-3 29 18-4 18-3v-25zm48 30v-75l4 38c2 20 2 54 0 75l-4 37v-75zm44 63c-4-3-7-32-7-64v-58l10-6 10-6v61h9c5 0 14-15 21-32l12-33 5 12c2 7-1 22-7 34l-12 21 11 11c6 6 11 21 11 33v22l-16 6c-20 8-39 8-47-1zm42-12 14-9-6-16-6-16h-31v25c0 27 6 30 29 16zm44 7 16-13 4-60 3-60 2 67 2 66 13 5 12 5-34 1-35 1 17-12zm69-58 1-75 6 35 6 35h50l6-35 6-35v150l-4-33-4-33-27 3-27 3-6 30-7 30v-75zm150 58c-18-18-15-35 14-62l27-24-7-17-6-16-21 6-22 7 7-11c4-6 16-11 26-11h19l11 20 11 20-26 26-26 26 3 16 4 17 17-1c9-1 17 2 17 7 0 13-34 11-48-3zm78-58v-70l28 1h27l-22 9-23 9v42l23 9 22 9h-22l-23 1v41l23 9 22 9h-27l-28 1v-70zm82-2 1-73 4 33 4 32h11c5 0 15-13 21-30 6-16 15-30 19-30h8l-11 27-10 27 12 28 11 28-12 15-12 15h-48l2-72zm46 34 3-22h-41v18c0 38 33 41 38 4zm36 9c11-61 27-111 35-111 5 0 16 29 25 65 19 74 19 78 7 71-5-3-12-26-15-51l-7-45h-9c-4 0-11 17-15 38-3 20-11 44-16 52l-11 15 6-34zm99-41v-75l4 38c2 20 2 54 0 75l-4 37v-75zm47 51c-5-11-10-34-10-51s5-40 10-51l11-19h24c14 0 25 4 25 8 0 5-10 8-22 8l-22-1-10 28-10 27 10 28 10 27 22-2 22-3v20h-49l-11-19zm84 5c-3-7-4-38-2-67l3-54 30-2 30-1-22 5-23 4v58l18 4 17 5-17 1-18 1v41l23 9 22 9h-28l-28 1-5-14zm88 2c-7-7-12-19-12-27v-15l27-22 26-21-6-17-7-17-22 6-23 7 11-12 12-12 18 4 19 3 3 25 4 24-26 21-27 21 7 18 7 18 18-5 19-5v9c0 13-34 11-48-3zm-712-265c0-16-4-35-9-42l-10-15 10-18 9-17 28 2 27 2v55l-12-4c-7-3-15-1-18 4l-5 9 10 6c5 3 10 15 10 26v19h-40v-27zm30 2c0-8-4-15-10-15-5 0-10 7-10 15s5 15 10 15c6 0 10-7 10-15zm-5-65c0-7-6-15-12-17l-13-5v44l13-4c6-3 12-11 12-18zm86 28 2-63 4 27 4 27 19 6c10 3 21 13 24 22l6 16-11 13c-6 8-20 14-30 14h-19l1-62zm39 32v-20h-30v40h30v-20zm157 8c-5-15 3-80 12-90l6-7-1 49c-1 51-8 72-17 48zm235-37 3-54 15-5 15-5-14 16-13 17 5 28 6 28-10 14-9 15 2-54zm-363 8-11-22 11-24 11-24 18 3 17 3 3 28 3 28-12 15c-16 19-26 18-40-7zm39-30-3-22-12-5-13-4v30c0 16 3 32 7 36l7 6 9-9 9-9-4-23zm35 36-5-16 16-18c20-22 20-28-1-34l-18-5 18-1 18-1 6 16 6 17-16 12c-10 7-17 18-17 25v12l16-6 15-6-6 10c-9 15-25 12-32-5zm110 8-13-5 1-61 2-62 4 28 4 27 10-6 10-6 14 12 15 12v22c0 12-5 27-12 34-13 13-16 13-35 5zm31-19c13-33-13-70-29-43l-7 10 6 25c7 28 21 31 30 8zm41 16-6-10 12 2c6 2 13-2 16-8l4-11-21-6-22-6 4-18 3-18 23-3 23-4-3 43-3 42-12 4c-6 2-14-1-18-7zm25-48c0-13-12-22-22-16l-8 5 5 10c8 11 25 12 25 1zm53 51-13-5 2-41 1-42 4 35c3 19 9 41 15 47 11 14 10 14-9 6zm160 0-13-5 1-41 1-42 5 20c2 11 6 30 9 43 2 12 9 22 14 22h10l1-37c1-39 3-38 13 10 4 15 11 27 16 27h10v-70h20v28c0 15-4 32-8 38l-7 11h-30c-16 0-36-2-42-4zm-89-37 1-39 15-5 15-5-12 14c-6 8-13 28-16 44l-5 30 2-39zm36-1v-35h20v70h-20v-35zm-359-137 2-63 4 25c3 14 8 29 13 33l8 9 11-33c6-18 13-30 16-27s1 16-3 29l-9 24 10 16 10 16-6 17-6 16h-51l1-62zm44 32v-15l-17-3-18-3v42l18-3 17-3v-15zm34-21-11-22 11-23 11-24h14c8 0 18 5 22 11l7 11-22-7-21-6v31h40v13c0 14-19 37-32 37-4 0-12-10-19-21zm41-10c0-5-7-9-15-9-15 0-20 12-9 23 8 8 24-1 24-14zm29 10-11-22 11-23 11-24 17 1 18 1-18 5-18 5 3 31 3 32 13-2c6-2 12 2 12 7 0 6-7 10-15 10h-14l-12-21zm63 9c-25-25-8-78 25-78h13l6 27 7 26-10 15c-13 21-26 25-41 10zm32-14c13-33-13-70-29-43l-7 10 6 25c7 28 21 31 30 8zm103 20c-4-4-7-22-7-41v-34l16-6 15-6 11 11 10 10-17-1-18-2-4 13-5 12h43l-3 22-3 23-15 3c-9 1-19 0-23-4zm33-25c0-5-7-9-15-9-15 0-20 12-9 23 8 8 24-1 24-14zm43 24-13-5v-36l1-37 14 40c16 43 15 44-2 38zm-147-30c4-15 10-35 15-43l8-15 10 28c6 16 11 36 11 45l-1 17-14-30-13-30-1 22c-1 12-6 25-11 28l-11 7 7-29zm179 12c2-11 7-32 11-48l6-27-13-17-14-16 15 5 14 4 13 50c15 59 16 81 1 40l-11-29-13 29-14 29 5-20z"/></g><g fill="#1674ab" transform="matrix(.1 0 0 -.1 0 300)"><path d="m1373 2879-92-9-113-29-113-29-95-42-95-42-65-9-65-9-73-36-73-36-55-54-54-54-24-48c-13-27-28-66-32-87l-7-38-55-81c-104-152-183-348-218-537l-17-94v-310l22-102c63-300 205-555 418-753l78-72 102-68 102-68 93-40c118-52 246-89 373-108l100-16 140 5 140 5 82 16c172 34 386 124 522 219l64 45 27-20c15-10 43-23 63-28l36-8 45 10 45 9 35 39 35 39 10 38c14 50 14 63-5 138l-16 63 45 74c95 158 157 313 193 483l19 90-1 175v175l-22 102c-32 150-95 313-160 417l-24 39 16 34c9 18 16 44 16 57v24l-16 13-16 13-29-16-28-17-68 70c-247 252-491 392-785 448l-103 19-105 5-105 5-92-9zm406-50c265-54 498-179 691-370l70-70-47-32-48-32-32-53c-17-30-50-97-73-150-54-127-71-160-92-179l-18-16-6 17-6 16 10 38c6 20 19 69 30 107 11 39 25 101 31 139l10 70-11 13c-15 19-42 16-62-6l-18-20-24 11-25 12-19-20-20-19-40-100c-51-127-74-173-103-209l-23-29-11 4-11 4 35 120 34 120 6 60 5 60-10-10c-6-6-38-69-71-142-58-130-113-223-131-223-14 0-14 4 25 154l35 137v87l-14 11-13 11-17-6c-9-3-16-9-16-13 0-3-4-12-9-20l-9-15-16 13-15 13-23-4-23-3-17-35c-10-19-40-84-68-145-50-108-92-175-111-175h-9v19c0 11 20 82 45 158s45 144 45 151v13l-17-3-18-3-76-153c-42-84-87-164-99-177l-23-24-9 5-10 6 7 45c6 39 19 79 73 218l15 41-6 26c-4 14-15 36-26 49l-19 24-40-1-40-1-30-22c-17-11-44-42-61-68l-32-48-16-54c-17-60-22-141-10-183l7-27 19-11 20-10 29 25 30 25 22 45c12 25 23 45 24 45s2-33 2-72l-1-73 28-3 28-3 15 12c8 6 33 45 56 85 23 41 45 74 49 74s0-19-8-42l-14-41 3-36 3-36 27-3 26-3 25 33c14 18 38 60 55 93 31 61 61 106 62 92 0-4-11-34-25-67l-25-59v-80l19-10 19-11 9 13c6 6 23 39 38 72 16 33 45 96 66 140l38 80v-28c1-15-8-63-20-107-11-43-21-97-22-120l-1-41 13-9 14-8 22 10c22 10 33 24 76 102l27 49-1-67-2-68 17-11 17-11 19 17c10 9 40 57 66 107 26 49 51 92 57 95l9 6-25-66-25-67v-79l17-6 16-6 24 29c12 16 41 72 63 124 23 52 48 111 57 130l17 35 3-21 4-21-22-79c-13-43-25-105-27-136l-4-58h51l19 20c20 22 82 142 82 160 0 5 5 10 10 10h10v-24c0-14 4-36 10-50l9-25 21-11 22-12 29 12 28 12 22 32 21 31-6-40c-7-53-42-158-72-218l-24-49 6-9c3-5 10-9 17-9 6 0 24-12 39-27l28-27 14 20c8 10 24 43 35 72l21 53 16 122c9 67 25 153 36 190l19 68 12-3c16-5 107-187 134-268 32-96 44-145 59-245l14-90v-220l-15-95c-18-112-63-263-106-356-38-81-117-214-129-214-8 0-29 48-89 200l-30 75 5-55c8-72 29-155 65-258l29-84V493l-20-25c-10-14-33-31-50-38l-30-13-43 6-42 6-32 35-32 34-5-11-4-12-12 15-12 15 8-20c4-11 7-31 8-44l1-25-60-42c-66-45-190-113-245-133-19-8-52-20-72-27-75-28-186-53-279-65l-94-11-135 5-135 5-91 21c-226 51-427 152-604 304-84 71-141 135-225 252l-57 80-48 100c-59 124-83 194-111 326l-23 104v320l18 90c23 113 67 248 113 343 39 81 128 222 140 222 5 0 16-14 25-30l17-30h42l-15 22-16 22v92l29 46 30 46 52 42c66 52 109 74 181 93 63 16 72 14 56-16-6-12-23-64-39-117-15-52-50-163-78-246l-51-152 6-16c4-9 14-21 24-26l17-9 20 14 20 14 23 78c12 43 27 84 33 91l10 13 31-3 31-3-2-45-2-45-35-80-35-80-88-6-88-5-60-28c-32-15-83-45-113-68l-53-41-45-61c-55-74-101-175-115-253l-11-58 5-75 5-75 21-47 21-47 42-35c23-20 48-36 55-36s13-4 13-10c0-5-5-10-12-10-6 0-20-7-30-17l-18-16v-84l28-39 29-40 60-32 61-32h103l37 19c42 22 69 49 104 106 44 73 78 196 78 285v36l81 119c44 66 87 127 95 135l14 14 10-10 10-10-24-34c-31-47-73-155-81-211l-7-47 17-36 17-36 26-7 25-6 26 9 26 9 51 78 51 77 7-32c3-17 14-40 23-50l16-18h44l15 18c9 9 25 36 37 59 11 23 25 44 31 48l10 6-6-74-7-75 23-12 22-12 27 19 26 20 59 96c33 54 61 95 64 93 2-3-3-26-12-52s-16-65-16-86v-39l14-34 15-35h78l38 38c21 20 62 74 91 120 30 45 56 82 58 82 3 0 2-24-1-54s-3-70 1-90l7-35 30-31 31-30h61l32 20 33 20 39 53c47 62 136 207 131 213-2 2-39-43-83-99-43-56-91-113-107-125l-29-24-39-5-40-6-10 28-10 28 13 46 13 46 27 13 28 14 30 40 29 41v24c0 13-5 33-10 44l-11 19h-66l-41-44c-23-25-80-97-127-161-105-142-116-155-132-155-6 0-14 9-18 20l-6 19 11 63c14 74 37 130 80 193l31 45 24 6 25 6v12c0 7-5 17-12 24l-12 12h-54l-34-27c-48-40-63-60-110-138-90-152-137-215-160-215-25 0 9 117 67 232l34 66-14 12-15 12v48l-21 21-21 21-50-4-49-5-34-33c-35-34-38-39-100-175-20-44-48-104-63-133l-26-54-29-24c-16-13-34-24-41-24-19 0-36 22-36 45v22l49 94c27 52 56 108 65 124 9 17 16 38 16 48v18l-40 17-39 17 5 36 6 37-21 7-21 6-25-18-25-18-6-23-7-23 12-25 11-25-25-42c-48-79-100-151-110-149-5 0-16 27-25 59-37 132-66 151-128 82-20-23-45-45-55-50l-17-10-8 20-7 20-32-20-31-20-17-35-16-35 6-19 6-20h30c16 0 46 7 66 15 19 8 39 15 44 15h9l-6-27c-4-16-17-44-30-64l-23-37-36-22-37-23-41-4-42-4-34 18-34 18-25 49-25 48v173l18 55c9 30 32 82 49 115l31 60 75 76 75 76 45 23c40 20 130 50 154 50h8l-6-44-7-45 11-40 11-40 25-31 26-30h100l27 16 27 16 32 47c35 52 72 155 72 201v31l-10-6c-5-3-10-16-10-29s-14-50-31-84l-30-62-43-47-43-48-17 14c-9 7-21 30-27 51l-12 38 7 36c4 20 10 36 13 36s21-10 40-21l34-21 7 7 7 7-39 35-39 36 27 76 26 76v92l-24 35-23 35 29 18c80 47 140 125 153 198l7 38-12 45-13 45-44 39-44 39-30 6c-41 9-36 19 19 43 128 55 270 91 402 102l95 8 105-5 105-5 94-19zm-799-224 30-15 6-26 6-25-18-42-19-42-66-67c-62-63-89-81-89-59 0 5 15 50 34 99 19 50 38 108 41 129 12 71 20 76 75 48zm1609-309 12-14-34-73c-18-41-45-97-60-126l-27-52-19-11-20-10-16 16-16 16 6 32c3 17 16 57 28 90l22 58 41 44 40 44h16c9 0 21-6 27-14zm-1219-41c0-9-8-27-17-42-10-14-43-76-73-137l-55-111-12-3-13-4v93l31 74 30 73 35 36 35 36h39v-15zm40-680 13-16-31-42c-17-23-47-76-67-117-40-83-61-110-83-110h-15l5 48 5 48 33 68c19 38 48 84 66 103l31 33h15c9 0 21-7 28-15zm576-57c-6-33-42-88-57-88-14 0-11 12 16 74l25 57 11-7 11-6-6-30zM731 1345l7-40-13-76-13-76-26-55c-33-70-59-102-109-139l-40-29h-78l-28 14c-15 8-35 26-45 40l-16 25v57l12 12c7 7 23 12 36 12h25l33-36c19-19 34-33 34-29 0 17-35 73-59 92l-26 22 30 1c30 0 97 28 125 52 31 26 70 85 85 129 8 24 17 50 20 57l5 13 17-3 18-3 6-40zm855 1083c-21-29-20-51 2-71 23-21 27-21 46-1l16 15v55l-12 12c-18 18-35 15-52-10zm424-4-11-27 6-18 6-18 20-6 20-7 15 13 15 12-3 36-3 36-27 3-28 3-10-27zm77-617c-26-8-56-22-67-32l-20-18v-54l19-25 20-25 59-31c33-18 67-32 75-32h15l5 22c8 30 3 34-44 42-23 4-54 13-70 22l-29 15v46l18 15c9 9 41 21 71 28l53 12 72-5c39-2 79-8 89-12l17-7v10c0 6-15 15-32 22l-33 11-85 5-85 4-48-13zm206-97-32-19-22-43-22-43-1-55-1-55 62-150 61-151 10-55 11-56-9-36c-11-52-33-81-73-101l-35-16h-83l-33 14-33 14-21 27-22 28-6 39-7 38h-26l-16-30-15-29v-74l26-34 25-33 52-27 52-26h70l70-1 30 16c70 38 127 125 140 218l6 45-15 55c-26 96-43 143-85 239-22 51-43 108-47 126l-6 33 12 22 12 22 34 14 35 15 27-13 26-13 22-64 22-64 14-8 13-8 7 17c10 26 9 63-3 105l-10 38-32 36-32 36-32 13c-18 8-45 14-60 14h-28l-32-20zm352-180c2-14 7-43 10-65s19-82 36-133c16-51 29-107 29-125v-33l-15-21-15-21-34-12-34-11-36 15-36 15-6 15-6 15-14-6-14-5 16-29 15-30 32-19 32-20h60l32 20 32 19 17 32 16 32-4 56-5 56-47 120c-26 66-51 129-56 140l-9 20 4-25zm-439-220c4-25 18-76 31-114 12-38 23-82 23-97v-28l-22-21-22-20h-63l-27 21-26 20v-15c0-8 11-27 25-41l26-25h78l28 24 28 24v117l-39 95c-21 52-40 97-43 100-2 2-1-16 3-40z"/></g></g></svg>